<svg xmlns="http://www.w3.org/2000/svg" viewBox="0 0 473.37 91.76"><g id="Capa_2" data-name="Capa 2"><g id="Capa_1-2" data-name="Capa 1"><path d="M202.2,16.67C193,13.07,183.83,9.44,174.08,5.6l5.5,29.74C167.2,24.88,155.51,15,143.17,4.61c0,26.93,0,53,0,79,0,2.3,1,2.26,2.67,2,8-1.27,16-2.47,24.05-3.76,4.75-.76,4.63-.8,4.22-5.56-.66-7.58-1.17-15.17-1.82-23.73l31.19,32.89c0-22.79,0-44.74,0-66.7A1.9,1.9,0,0,0,202.2,16.67Z"/><path d="M115,47.62q-6.12-13.14-12.13-26.35a3.4,3.4,0,0,0-2.5-2.06c-3.5-.91-7-1.87-10.44-3-1.42-.45-2-.17-2.54,1.23q-8.93,24.17-18,48.28c-.48,1.28-.53,2,.85,2.74,4.71,2.52,9.34,5.18,14,7.77a11.84,11.84,0,0,0,1.13.52c1.1.08,1.29-.62,1.59-1.2,1.13-2.18,2.16-4.44,3.43-6.54.76-1.26,1-3,2.8-3.49a47.22,47.22,0,0,0,4.68-1.35c1.2-.44,1.78,0,2.28,1,1.37,2.89,2.87,5.71,4.16,8.63.7,1.59,1.3,2,3,1,4.9-2.9,9.9-5.63,14.92-8.33,1.22-.65,1.13-1.26.64-2.29Q118.87,55.95,115,47.62ZM91.92,51.87,94.7,40.4c1,1.34,1.12,2.8,1.55,4.1.25.77.48,1.56.72,2.34C98.81,52.85,98.53,53.14,91.92,51.87Z"/><path d="M472.83,71.23c-2.86-6-5.76-12-8.56-18Q457,37.54,449.81,21.81a3.34,3.34,0,0,0-2.45-2.06c-4-1.05-8.07-2.08-12-3.44-2.15-.75-2.74,0-3.39,1.83-2.25,6.31-4.67,12.55-7,18.83q-6.72,18-13.44,36.09c-.45,1.21-1,2.16.65,3,5.57,3,11.09,6.09,16.58,9.22,1.61.92,2.34.34,3.06-1.1,1.61-3.2,3.33-6.35,5-9.5.67-1.26,7.91-4.18,9-3.55a3.66,3.66,0,0,1,1,1.58c1.73,3.45,3.43,6.93,5.18,10.38.26.51.29,1.33,1.14,1.33l1.07-.54c6.13-3.13,11.73-7.23,18.05-10C474,73.18,473.32,72.26,472.83,71.23ZM443.14,57.56C437,58,437,58,438.59,52.07c.68-2.62,1.37-5.24,2.22-8.5,1.37,4.53,2.49,8.3,3.64,12.06C444.83,56.87,444.69,57.45,443.14,57.56Z"/><path d="M393.51,49.92c0-1.49-.33-2.05-1.93-1.9-4.26.41-8.55.58-12.8,1-1.93.2-2.32-.42-2.3-2.24.09-8.49-.05-17,.08-25.45,0-2.15-.62-2.6-2.62-2.48-4.52.28-9.06.42-13.58.42-1.78,0-2.15.55-2.13,2.25.09,8.15,0,16.3,0,24.45H359c.24,8.32.5,16.63.7,24.95,0,1.24.1,2,1.68,1.89q15.19-.69,30.38-1.23c1.38,0,1.81-.54,1.79-1.92Q393.42,59.8,393.51,49.92Z"/><path d="M328.18.1q-23.44,2.28-46.95,4c-3,.21-3.69,1.12-3.58,4,.54,13.31.88,26.63,1.29,40h1.2c0,13.6.07,27.2-.06,40.8,0,2.75.77,3.36,3.37,2.83q23.26-4.73,46.58-9.25c2.26-.44,3-1.42,2.57-3.74-.69-4.28-1.19-8.61-1.49-12.94-.19-2.63-1.15-3.5-3.84-3.46-6.6.09-13.19-.17-19.79-.27-1.62,0-3,0-3-2.38s1.24-2.28,2.91-2.47c3.71-.43,9,.84,10.73-1.66,1.87-2.66.5-7.53.73-11.43.13-2.22-.6-3-2.84-2.8-3.77.35-7.56.5-11.34.7-1.77.1-3.59.65-3.61-2.42,0-2.74,1.06-3.23,3.46-3.29,8-.19,15.95-.68,23.93-.83,3-.06,4.28-1,4.29-4.14,0-8.83,0-17.68.56-26.5C333.58.33,332.12-.29,328.18.1Z"/><path d="M56.26,35.13c-.55-11.8-7-19.62-18.38-22.89A49.38,49.38,0,0,0,24.6,10.6,84.58,84.58,0,0,0,2.12,14.43C.35,15-.12,15.78,0,17.5c.42,4.91.73,9.83,1.05,14.75C1.87,44.62,2.68,57,3.39,69.37c.09,1.57.63,2.1,2.14,2.41,15,3.07,28.21-.7,39.83-10.25C53.6,54.75,56.74,45.53,56.26,35.13ZM22.83,48.2c-1.5.33-1.35-.5-1.35-1.39V37.54h0c0-3,.07-6,0-9-.05-1.46.51-1.82,1.85-1.75A8.07,8.07,0,0,1,29.51,30C34.13,36,30.19,46.54,22.83,48.2Z"/><path d="M240.88,34.68c-.2,0-.52.12-.55-.27,6-4.59,5.43-12.52,1.68-16.1a9.8,9.8,0,0,0-14.14.35c-4.47,4.94-3.27,10.94,3.65,16.87a26.24,26.24,0,0,1-3.32.17c-2.29-.17-3,.64-3,3.08.14,11.12.1,22.26,0,33.38,0,2,.57,2.33,2.36,2.08,5.14-.73,10.29-1.4,15.45-1.91,1.79-.17,2.09-.92,2.08-2.5C245,59.45,245,49.06,245,38.67,245,34.58,245,34.59,240.88,34.68Z"/></g></g></svg>
