<svg xmlns="http://www.w3.org/2000/svg" viewBox="0 0 438.3 87"><g id="Capa_2" data-name="Capa 2"><g id="Capa_1-2" data-name="Capa 1"><path d="M208.82,12.61c-9.54-3.73-19.06-7.5-29.17-11.49,1.92,10.38,3.73,20.2,5.71,30.86L147.58.1c0,27.94,0,55-.05,82,0,2.38,1.07,2.35,2.76,2.08,8.32-1.31,16.64-2.56,25-3.89,4.93-.79,4.81-.83,4.38-5.78-.68-7.86-1.21-15.73-1.88-24.61L210.09,84c0-23.63,0-46.41,0-69.18A2,2,0,0,0,208.82,12.61Z"/><path d="M130.6,45.61Q121.92,26.93,113.38,8.2a4.83,4.83,0,0,0-3.55-2.93C104.85,4,99.89,2.61,95,1,93,.4,92.14.79,91.4,2.78Q78.74,37.08,65.88,71.33c-.68,1.82-.74,2.85,1.22,3.89,6.68,3.58,13.25,7.35,19.87,11,.6.33,1.26.58,1.6.73,1.56.12,1.83-.88,2.26-1.69C92.44,82.19,93.89,79,95.7,76c1.08-1.78,1.39-4.29,4-5a68.42,68.42,0,0,0,6.65-1.92c1.7-.63,2.53-.06,3.23,1.42,2,4.1,4.09,8.11,5.91,12.25,1,2.27,1.85,2.85,4.24,1.44,7-4.11,14-8,21.18-11.82,1.73-.93,1.6-1.8.9-3.26C138,61.33,134.26,53.49,130.6,45.61Zm-32.74,6c1.27-5.28,2.55-10.54,3.94-16.3,1.49,1.9,1.6,4,2.21,5.82.36,1.1.69,2.21,1,3.32C107.64,53,107.24,53.44,97.86,51.65Z"/><path d="M437.63,69c-3.54-7.41-7.12-14.8-10.58-22.24q-9-19.38-17.87-38.83a4.1,4.1,0,0,0-3-2.54c-5-1.3-10-2.57-14.81-4.26-2.66-.92-3.39,0-4.19,2.27-2.78,7.79-5.77,15.51-8.66,23.27Q370.18,49,361.87,71.27c-.56,1.5-1.19,2.68.81,3.75,6.88,3.7,13.7,7.52,20.49,11.4,2,1.13,2.89.41,3.78-1.37,2-4,4.11-7.84,6.2-11.74.83-1.55,9.78-5.16,11.12-4.38.6.35.92,1.25,1.27,1.95,2.14,4.27,4.23,8.56,6.4,12.82.32.64.36,1.65,1.4,1.65l1.33-.66c7.57-3.87,14.49-8.94,22.3-12.37C439,71.42,438.24,70.29,437.63,69ZM400.94,52.12c-7.55.53-7.55.6-5.63-6.78.85-3.24,1.7-6.48,2.75-10.51,1.69,5.6,3.07,10.26,4.5,14.9C403,51.27,402.85,52,400.94,52.12Z"/><path d="M358.66,48.91c0-2.11-.47-2.9-2.74-2.68-6.05.58-12.13.82-18.18,1.45-2.74.29-3.28-.6-3.26-3.18.13-12-.07-24.1.11-36.14.05-3-.87-3.69-3.72-3.51-6.41.4-12.85.59-19.28.59-2.52,0-3,.79-3,3.19.14,11.57.07,23.15.07,34.72h1c.34,11.8.71,23.61,1,35.41,0,1.76.15,2.8,2.4,2.69q21.56-1,43.13-1.75c2-.07,2.56-.77,2.54-2.72Q358.54,62.94,358.66,48.91Z"/><path d="M296.62,5Q277,6.88,257.44,8.27c-2.51.18-3.09.94-3,3.31.45,11.11.73,22.23,1.07,33.34h1c0,11.35.06,22.7,0,34.05,0,2.3.64,2.81,2.81,2.36q19.41-3.94,38.87-7.72c1.89-.37,2.46-1.18,2.15-3.11-.57-3.58-1-7.19-1.25-10.8-.15-2.2-1-2.93-3.2-2.9-5.51.08-11-.14-16.51-.22-1.36,0-2.49,0-2.5-2s1-1.9,2.43-2.06c3.1-.36,7.5.7,9-1.38s.42-6.29.61-9.55c.11-1.84-.5-2.5-2.37-2.33-3.15.29-6.31.42-9.47.59-1.47.07-3,.54-3-2,0-2.29.88-2.7,2.88-2.75,6.66-.16,13.31-.57,20-.7,2.48,0,3.57-.82,3.58-3.45,0-7.37,0-14.76.47-22.11C301.13,5.17,299.9,4.65,296.62,5Z"/><path d="M68,35.89c-.66-14.24-8.48-23.7-22.2-27.64a59.39,59.39,0,0,0-16.05-2A102.11,102.11,0,0,0,2.56,10.89C.42,11.54-.15,12.52,0,14.6.54,20.53.92,26.47,1.3,32.41c1,15,1.93,29.9,2.79,44.85.11,1.9.76,2.54,2.59,2.92,18.08,3.7,34.08-.85,48.12-12.39C64.76,59.6,68.56,48.47,68,35.89ZM27.58,51.68C25.77,52.09,26,51.09,26,50V38.81h0c0-3.61.09-7.23,0-10.84-.07-1.77.6-2.21,2.23-2.13a9.75,9.75,0,0,1,7.52,3.82C41.24,36.91,36.48,49.68,27.58,51.68Z"/><path d="M240.11,27.29c-.28,0-.74.16-.78-.4C247.91,20.39,247,9.13,241.71,4a13.9,13.9,0,0,0-20.07.49c-6.35,7-4.65,15.54,5.18,24a38.64,38.64,0,0,1-4.72.24c-3.24-.24-4.33.9-4.29,4.37.2,15.8.15,31.6,0,47.4,0,2.83.82,3.31,3.36,3,7.3-1,14.61-2,21.94-2.71,2.54-.25,3-1.3,2.94-3.55C245.94,62.44,246,47.7,246,33,246,27.14,246,27.15,240.11,27.29Z"/></g></g></svg>